grf
version=1
nRows=11
nColumns=37
inDegrees=no
endheader
time	ground_force_1_vx	ground_force_1_vy	ground_force_1_vz	ground_force_1_px	ground_force_1_py	ground_force_1_pz	ground_moment_1_mx	ground_moment_1_my	ground_moment_1_mz	ground_force_2_vx	ground_force_2_vy	ground_force_2_vz	ground_force_2_px	ground_force_2_py	ground_force_2_pz	ground_moment_2_mx	ground_moment_2_my	ground_moment_2_mz	ground_force_3_vx	ground_force_3_vy	ground_force_3_vz	ground_force_3_px	ground_force_3_py	ground_force_3_pz	ground_moment_3_mx	ground_moment_3_my	ground_moment_3_mz	ground_force_4_vx	ground_force_4_vy	ground_force_4_vz	ground_force_4_px	ground_force_4_py	ground_force_4_pz	ground_moment_4_mx	ground_moment_4_my	ground_moment_4_mz
      2.17000000	      0.00000000	     -0.00000000	      0.00000000	      0.00000000	      0.00000000	      0.00000000	      0.00000000	      0.00000000	      0.00000000	     -1.39757836	     -1.12893212	   -759.21899414	   -301.25925521	  -1075.64501549	      0.00000000	      0.00000000	      0.00000000	    139.53374150	     -0.20677397	     -6.81538151	    -60.46099091	   -278.12415676	   -814.35579843	      0.00000000	      0.00000000	     -0.00000000	   -405.29895766	      0.00000000	     -0.00000000	      0.00000000	      0.00000000	      0.00000000	      0.00000000	      0.00000000	      0.00000000	      0.00000000
      2.18000000	      0.00000000	     -0.00000000	      0.00000000	      0.00000000	      0.00000000	      0.00000000	      0.00000000	      0.00000000	      0.00000000	     -0.86325639	     -1.38178742	   -759.51452637	   -301.63042268	  -1075.00198716	      0.00000000	     -0.00000000	      0.00000000	    323.98126383	     -0.51752747	     -6.88909145	    -58.36632538	   -277.97833307	   -823.52081154	      0.00000000	      0.00000000	     -0.00000000	   -284.97434888	      0.00000000	     -0.00000000	      0.00000000	      0.00000000	      0.00000000	      0.00000000	      0.00000000	      0.00000000	      0.00000000
      2.19000000	      0.00000000	     -0.00000000	      0.00000000	      0.00000000	      0.00000000	      0.00000000	      0.00000000	      0.00000000	      0.00000000	     -1.17475784	     -0.95133471	   -760.92803955	   -301.13505743	  -1075.23108892	      0.00000000	     -0.00000000	      0.00000000	    351.96325138	     -0.48795880	     -6.58001419	    -58.13393402	   -276.02739940	   -810.33366322	      0.00000000	      0.00000000	     -0.00000000	   -266.68056301	      0.00000000	     -0.00000000	      0.00000000	      0.00000000	      0.00000000	      0.00000000	      0.00000000	      0.00000000	      0.00000000
      2.20000000	      0.00000000	     -0.00000000	      0.00000000	      0.00000000	      0.00000000	      0.00000000	      0.00000000	      0.00000000	      0.00000000	     -1.36699927	     -1.60300565	   -761.39617920	   -301.50709415	  -1075.68546175	      0.00000000	      0.00000000	      0.00000000	    347.24600976	     -0.39946008	     -6.87428471	    -56.27194214	   -276.01524310	   -816.26282384	      0.00000000	      0.00000000	     -0.00000000	   -323.73577828	      0.00000000	     -0.00000000	      0.00000000	      0.00000000	      0.00000000	      0.00000000	      0.00000000	      0.00000000	      0.00000000
      2.21000000	      0.00000000	     -0.00000000	      0.00000000	      0.00000000	      0.00000000	      0.00000000	      0.00000000	      0.00000000	      0.00000000	     -1.29269421	     -0.78703272	   -762.46234131	   -300.93549910	  -1074.86107504	      0.00000000	      0.00000000	      0.00000000	    552.88239001	     -0.76942298	     -6.52093595	    -55.80196381	   -279.13245822	   -804.02109567	      0.00000000	      0.00000000	     -0.00000000	   -182.02266916	      0.00000000	     -0.00000000	      0.00000000	      0.00000000	      0.00000000	      0.00000000	      0.00000000	      0.00000000	      0.00000000
      2.22000000	      0.00000000	     -0.00000000	      0.00000000	      0.00000000	      0.00000000	      0.00000000	      0.00000000	      0.00000000	      0.00000000	     -0.74198514	     -1.11520588	   -762.98925781	   -301.54553991	  -1074.64648196	      0.00000000	      0.00000000	      0.00000000	    756.77380783	     -0.62097609	     -6.78582901	    -52.31890488	   -276.67673194	   -814.78423009	      0.00000000	      0.00000000	     -0.00000000	   -185.56590286	      0.00000000	     -0.00000000	      0.00000000	      0.00000000	      0.00000000	      0.00000000	      0.00000000	      0.00000000	      0.00000000
      2.23000000	      0.00000000	     -0.00000000	      0.00000000	      0.00000000	      0.00000000	      0.00000000	      0.00000000	      0.00000000	      0.00000000	     -0.72897369	     -1.32420492	   -765.98669434	   -301.32887724	  -1074.33435464	      0.00000000	     -0.00000000	     -0.00000000	    633.64913905	     -0.57577098	     -6.84408469	    -50.62698364	   -276.80865378	   -809.59964638	      0.00000000	      0.00000000	     -0.00000000	   -165.29131257	      0.00000000	     -0.00000000	      0.00000000	      0.00000000	      0.00000000	      0.00000000	      0.00000000	      0.00000000	      0.00000000
      2.24000000	      0.00000000	     -0.00000000	      0.00000000	      0.00000000	      0.00000000	      0.00000000	      0.00000000	      0.00000000	      0.00000000	     -0.31368697	     -1.27560389	   -770.46771240	   -301.61650777	  -1074.26600331	      0.00000000	     -0.00000000	      0.00000000	    680.51770159	     -0.28126317	     -6.44748304	    -47.31411743	   -273.44536236	   -818.23246011	      0.00000000	      0.00000000	     -0.00000000	   -147.41285977	      0.00000000	     -0.00000000	      0.00000000	      0.00000000	      0.00000000	      0.00000000	      0.00000000	      0.00000000	      0.00000000
      2.25000000	      0.00000000	     -0.00000000	      0.00000000	      0.00000000	      0.00000000	      0.00000000	      0.00000000	      0.00000000	      0.00000000	     -0.24011973	     -1.76719725	   -775.46099854	   -301.19215628	  -1074.90534014	      0.00000000	      0.00000000	      0.00000000	    816.48679402	      0.22302914	     -6.15474035	    -46.01831818	   -271.70331591	   -804.08742805	      0.00000000	      0.00000000	     -0.00000000	    -74.87251762	      0.00000000	     -0.00000000	      0.00000000	      0.00000000	      0.00000000	      0.00000000	      0.00000000	      0.00000000	      0.00000000
      2.26000000	      0.00000000	     -0.00000000	      0.00000000	      0.00000000	      0.00000000	      0.00000000	      0.00000000	      0.00000000	      0.00000000	     -0.86113870	     -1.99180746	   -776.99584961	   -301.17242697	  -1074.59585304	      0.00000000	      0.00000000	     -0.00000000	    844.04612956	      0.29379911	     -5.69816973	    -43.34362793	   -276.78610731	   -801.46667771	      0.00000000	      0.00000000	     -0.00000000	   -105.23319477	      0.00000000	     -0.00000000	      0.00000000	      0.00000000	      0.00000000	      0.00000000	      0.00000000	      0.00000000	      0.00000000
      2.27000000	      0.00000000	     -0.00000000	      0.00000000	      0.00000000	      0.00000000	      0.00000000	      0.00000000	      0.00000000	      0.00000000	     -0.92319936	     -0.98450303	   -779.82128906	   -300.84174199	  -1074.02822787	      0.00000000	      0.00000000	      0.00000000	    845.22748857	      0.67903697	     -4.84565741	    -37.05764771	   -278.32570648	   -817.49120056	      0.00000000	      0.00000000	     -0.00000000	    -85.93369821	      0.00000000	     -0.00000000	      0.00000000	      0.00000000	      0.00000000	      0.00000000	      0.00000000	      0.00000000	      0.00000000
